<?xml version="1.0" standalone="no"?>
<!DOCTYPE svg PUBLIC "-//W3C//DTD SVG 20010904//EN"
 "http://www.w3.org/TR/2001/REC-SVG-20010904/DTD/svg10.dtd">
<svg version="1.0" xmlns="http://www.w3.org/2000/svg"
 width="400.000000pt" height="400.000000pt" viewBox="0 0 400.000000 400.000000"
 preserveAspectRatio="xMidYMid meet">
<metadata>
Created by potrace 1.11, written by Peter Selinger 2001-2013
</metadata>
<g transform="translate(0.000000,400.000000) scale(0.100000,-0.100000)"
fill="#000000" stroke="none">
<path d="M1940 3408 c-100 -162 -289 -452 -304 -466 -8 -8 -47 -29 -87 -47
l-73 -32 -56 17 c-30 10 -113 38 -184 64 -72 25 -131 44 -132 43 -1 -1 18 -87
43 -190 l45 -187 -37 -55 c-33 -51 -73 -129 -108 -215 -11 -27 -28 -42 -73
-65 -247 -128 -464 -249 -457 -255 4 -4 127 -74 271 -155 199 -112 266 -154
273 -173 18 -47 80 -164 109 -207 l29 -42 -55 -179 c-30 -98 -58 -182 -60
-186 -9 -14 5 -10 203 55 l191 63 54 -27 c29 -16 73 -35 98 -44 l45 -15 149
-295 c82 -162 152 -295 155 -295 3 0 48 75 100 168 224 397 244 432 265 438
12 4 54 22 94 41 50 24 77 31 85 25 7 -6 35 -19 62 -30 28 -11 103 -43 169
-71 65 -29 121 -50 123 -47 3 2 -13 16 -35 31 -36 24 -225 219 -278 288 -12
15 -26 27 -31 27 -4 0 -32 -16 -60 -35 -65 -44 -190 -99 -275 -122 -45 -12
-105 -17 -213 -17 -131 -1 -160 2 -225 23 -98 30 -179 70 -262 125 l-68 45
-47 -50 c-26 -28 -61 -60 -78 -72 l-30 -21 29 39 c16 22 45 57 63 78 18 20 33
42 33 48 0 6 -20 33 -45 61 -27 30 -44 58 -42 71 1 15 -5 22 -23 27 -17 4 -34
22 -52 55 -37 68 -88 225 -88 272 0 21 -7 47 -15 57 -8 11 -15 29 -15 40 1 20
1 20 15 2 8 -11 21 -16 30 -13 19 8 20 57 1 57 -39 0 -32 84 20 247 37 118 81
196 161 291 l45 52 -100 113 c-55 61 -114 125 -131 141 -26 25 -41 56 -27 56
9 0 215 -82 264 -105 40 -19 52 -30 48 -43 -12 -44 -27 -134 -23 -139 3 -2 32
13 65 36 153 103 345 170 492 171 25 0 52 5 60 10 10 7 -20 10 -95 10 -121 0
-148 8 -125 35 11 13 11 18 1 25 -32 19 201 37 278 21 110 -23 147 -35 231
-74 125 -57 153 -67 174 -55 17 9 331 118 341 118 3 0 5 -9 5 -20 0 -11 -6
-20 -14 -20 -8 0 -21 -9 -29 -19 -7 -11 -55 -63 -105 -116 -92 -95 -109 -125
-73 -125 11 0 36 -10 56 -21 37 -22 57 -21 32 2 -15 15 -13 36 9 87 19 42 26
41 23 -5 -3 -62 0 -88 10 -78 5 6 30 64 55 130 26 66 55 142 66 169 11 27 19
50 17 52 -1 1 -92 -29 -202 -67 -110 -38 -207 -69 -216 -69 -9 0 -46 14 -82
30 l-65 31 -167 279 c-92 154 -169 280 -171 280 -1 0 -26 -37 -54 -82z m130
-70 c35 -62 94 -167 132 -233 37 -66 68 -126 68 -132 0 -15 -31 -17 -45 -4 -6
5 -55 19 -110 31 -55 12 -108 27 -117 32 -16 8 -18 29 -18 213 0 164 3 205 13
205 8 0 42 -51 77 -112z m585 -648 c3 -5 -1 -10 -9 -10 -9 0 -16 5 -16 10 0 6
4 10 9 10 6 0 13 -4 16 -10z m-1771 -542 c-24 -46 -44 -91 -44 -100 0 -10 -1
-18 -2 -19 -19 -4 -298 -10 -298 -6 0 8 371 207 386 207 1 0 -18 -37 -42 -82z
m1131 -1248 c15 -6 45 -11 67 -12 22 -1 42 -6 44 -13 5 -13 -77 -192 -115
-249 l-26 -40 -6 95 c-6 83 -1 229 7 229 1 0 15 -5 29 -10z"/>
<path d="M1910 2960 c-13 -8 -12 -10 3 -10 9 0 17 5 17 10 0 12 -1 12 -20 0z"/>
<path d="M1890 2851 c-36 -4 -90 -16 -120 -26 -120 -39 -338 -164 -360 -206
-6 -10 -20 -29 -31 -41 -38 -41 -79 -101 -79 -113 0 -7 -16 -48 -36 -91 -50
-111 -69 -199 -68 -319 3 -218 84 -426 222 -568 86 -89 202 -161 327 -205 77
-27 363 -48 443 -32 59 11 167 56 243 101 78 46 189 138 211 175 11 19 24 34
30 34 12 0 5 -11 -50 -84 -42 -56 -43 -58 -18 -52 14 3 46 9 71 13 25 3 48 10
52 16 6 11 61 -119 82 -196 26 -93 22 -37 -5 70 l-27 109 36 50 c20 28 53 86
72 130 20 43 40 86 44 94 4 8 129 83 277 167 238 135 297 173 267 173 -5 0
-131 69 -281 153 l-272 153 -39 79 c-39 81 -128 211 -138 202 -3 -3 8 -25 24
-49 37 -54 78 -129 103 -190 17 -42 30 -55 102 -101 46 -30 110 -69 143 -87
33 -18 71 -41 85 -50 14 -10 71 -41 128 -69 56 -28 102 -56 102 -61 0 -7 -81
-10 -237 -10 l-238 1 -7 -78 c-9 -98 -40 -200 -85 -280 -19 -35 -37 -63 -39
-63 -3 0 -4 3 -2 8 29 60 62 162 54 169 -3 3 -10 -6 -15 -20 -17 -45 -32 -43
-25 5 4 24 10 45 14 48 11 8 20 80 10 80 -5 0 -11 -13 -15 -30 -16 -72 -154
-314 -155 -271 0 8 6 19 14 25 24 19 104 237 117 315 6 42 8 102 4 138 -5 45
-3 68 6 79 6 8 10 15 8 17 -2 1 -13 7 -24 13 -16 9 -21 23 -23 66 -2 40 -9 61
-22 73 -11 10 -20 28 -20 40 0 12 -13 39 -30 60 -16 21 -30 43 -30 50 0 22
-127 171 -187 220 -160 131 -387 192 -613 166z m338 -173 c100 -33 127 -52
260 -181 57 -56 112 -153 112 -198 0 -16 9 -51 20 -78 10 -27 26 -85 35 -130
15 -74 15 -86 0 -163 -18 -91 -60 -222 -80 -251 -16 -23 -55 -51 -61 -44 -3 3
6 28 20 56 21 40 23 49 10 44 -19 -7 -17 11 11 87 9 24 21 100 27 167 8 104 8
129 -6 165 -8 24 -24 78 -35 121 -11 43 -23 83 -27 90 -24 41 -181 217 -194
217 -22 0 -239 76 -255 90 -8 7 -27 9 -50 4 -20 -3 -55 -1 -80 6 -38 11 -48
10 -80 -6 -84 -45 -215 -126 -215 -135 0 -17 -104 -116 -130 -124 -40 -12 -60
-36 -60 -71 0 -44 16 -51 34 -16 9 17 29 35 48 41 55 21 61 26 106 82 72 91
87 104 172 148 71 36 87 41 107 32 13 -6 51 -11 83 -11 44 0 64 -5 77 -18 10
-10 32 -24 50 -31 18 -7 39 -24 48 -37 10 -16 25 -24 44 -24 16 0 43 -8 60
-17 38 -22 42 -47 6 -40 -20 3 -25 1 -23 -12 2 -11 21 -19 55 -26 35 -7 58
-17 68 -32 8 -12 28 -34 43 -50 29 -28 75 -139 86 -203 14 -83 17 -202 7 -233
-7 -19 -12 -51 -13 -73 -1 -21 -10 -59 -21 -83 -10 -24 -17 -54 -14 -67 3 -18
-5 -32 -34 -59 -40 -36 -54 -41 -78 -26 -15 10 -7 31 12 31 20 1 52 33 66 68
19 46 8 50 -12 3 -12 -27 -28 -43 -55 -55 -27 -12 -42 -27 -50 -50 -7 -19 -24
-38 -40 -46 -57 -26 -193 -70 -219 -70 -14 0 -23 -3 -19 -7 21 -22 153 15 252
71 38 21 43 22 34 6 -15 -27 -12 -32 11 -25 37 12 11 -14 -39 -39 -77 -38
-209 -78 -250 -75 -20 2 -55 -2 -77 -9 -103 -33 -114 -35 -127 -25 -17 14
-127 48 -206 64 -53 11 -70 20 -98 52 -39 42 -37 63 3 42 16 -9 33 -11 42 -5
9 4 66 24 128 44 61 20 116 43 123 51 6 8 53 28 104 45 124 41 238 113 297
187 25 32 55 62 67 68 27 12 35 31 22 55 -6 10 -10 52 -10 94 0 41 -7 107 -15
146 -15 71 -15 72 7 91 13 10 28 18 35 19 6 0 15 5 18 11 5 7 -7 8 -39 4 -38
-6 -51 -4 -66 10 -11 10 -20 23 -20 30 0 6 -6 23 -12 38 -10 21 -22 28 -56 33
-50 8 -111 0 -126 -17 -8 -8 7 -10 58 -7 65 3 70 2 85 -23 9 -14 28 -43 42
-65 41 -62 51 -102 55 -213 2 -57 6 -117 9 -132 6 -25 3 -30 -20 -39 -38 -14
-50 -13 -35 5 11 13 4 63 -7 51 -13 -13 -73 49 -84 86 -7 28 -14 38 -25 34 -8
-3 -21 5 -31 21 -9 14 -31 34 -48 44 -36 23 -16 25 25 4 33 -17 41 -7 10 13
-11 7 -20 19 -20 28 0 9 -7 14 -17 12 -21 -4 -53 20 -53 39 0 20 -14 16 -55
-17 -40 -32 -66 -40 -45 -15 22 26 5 26 -33 1 -78 -53 -78 -53 -76 3 2 47 5
52 41 76 22 15 38 29 35 32 -7 7 -44 -6 -60 -20 -7 -7 -22 -17 -32 -23 -31
-17 -47 -61 -48 -128 -1 -49 5 -74 29 -121 37 -75 63 -87 117 -55 l37 22 -30
28 c-18 17 -30 38 -30 54 0 31 16 35 25 6 3 -11 15 -25 26 -31 19 -10 20 -9 8
12 -10 19 -9 25 6 36 30 21 138 -5 141 -35 0 -4 7 -23 16 -44 17 -37 22 -76
19 -136 -1 -40 -46 -87 -95 -101 l-31 -9 31 -1 c17 -1 48 6 67 14 31 13 36 13
31 1 -9 -24 -84 -68 -107 -62 -11 3 -37 -4 -58 -15 -22 -11 -59 -22 -83 -25
-38 -6 -53 -1 -116 32 -61 33 -78 49 -115 104 -24 36 -52 74 -63 83 -19 17
-19 17 -16 -10 l4 -28 -14 30 c-7 16 -12 34 -10 40 2 5 -7 24 -21 40 -13 17
-24 24 -25 18 0 -7 -5 -13 -11 -13 -7 0 -9 10 -5 26 6 21 4 25 -8 21 -13 -5
-14 1 -8 41 8 51 6 143 -4 210 -7 50 8 73 66 101 50 25 80 45 80 54 0 10 41
69 55 79 5 4 6 11 1 15 -5 4 -11 2 -13 -4 -3 -7 -12 -13 -22 -13 -9 0 -22 -5
-29 -12 -7 -7 -12 -8 -12 -2 0 20 190 123 275 149 114 34 268 28 403 -17z
m-808 -470 c0 -16 -3 -19 -11 -11 -6 6 -8 16 -5 22 11 17 16 13 16 -11z m-2
-663 c-3 -3 -9 2 -12 12 -6 14 -5 15 5 6 7 -7 10 -15 7 -18z"/>
<path d="M1928 2409 c-32 -16 -58 -32 -58 -35 0 -3 3 -4 8 -2 59 29 83 38 115
43 21 3 35 10 32 16 -10 15 -37 9 -97 -22z"/>
<path d="M1861 2321 c-30 -16 -58 -37 -62 -47 -17 -44 -7 -46 29 -6 20 23 55
51 77 62 22 10 33 19 25 19 -8 0 -39 -13 -69 -28z"/>
<path d="M2210 2201 c0 -11 5 -23 10 -26 6 -3 10 -21 9 -38 l-1 -32 -11 28
c-12 29 -37 37 -37 11 0 -8 11 -30 24 -47 13 -18 26 -41 29 -52 2 -11 3 -5 1
14 -2 19 0 40 5 45 10 14 -7 116 -20 116 -5 0 -9 -9 -9 -19z"/>
<path d="M1501 2175 c0 -11 4 -29 9 -40 l9 -20 0 20 c0 11 -4 29 -9 40 l-9 20
0 -20z"/>
<path d="M1510 2099 c0 -9 9 -27 21 -40 11 -13 18 -18 14 -11 -29 57 -35 65
-35 51z"/>
<path d="M1911 2064 c0 -11 3 -14 6 -6 3 7 2 16 -1 19 -3 4 -6 -2 -5 -13z"/>
<path d="M1599 1965 c6 -11 33 -45 61 -75 38 -40 43 -44 22 -15 -45 59 -95
113 -83 90z"/>
<path d="M1739 1821 c13 -12 28 -21 34 -21 12 0 11 0 -28 24 l-30 17 24 -20z"/>
<path d="M1798 1793 c6 -2 18 -2 25 0 6 3 1 5 -13 5 -14 0 -19 -2 -12 -5z"/>
<path d="M1853 1793 c9 -2 23 -2 30 0 6 3 -1 5 -18 5 -16 0 -22 -2 -12 -5z"/>
<path d="M1910 1439 c-14 -6 -38 -8 -55 -4 -21 4 -26 2 -19 -5 15 -15 42 -14
94 3 25 8 36 15 25 15 -11 1 -31 -4 -45 -9z"/>
<path d="M2919 2257 c10 -29 22 -78 25 -108 11 -88 17 -110 28 -103 13 8 1
123 -17 178 -8 22 -11 44 -8 48 5 9 -24 37 -39 38 -4 0 1 -24 11 -53z"/>
<path d="M2875 1871 c-3 -5 -1 -12 5 -16 5 -3 10 1 10 9 0 18 -6 21 -15 7z"/>
</g>
</svg>
